<svg width="41" height="21" viewBox="0 0 41 21" fill="none" xmlns="http://www.w3.org/2000/svg">
<path fill-rule="evenodd" clip-rule="evenodd" d="M6.09148 7.45281C6.482 7.06228 7.11517 7.06228 7.50569 7.45281L10.7986 10.7457L14.0915 7.45281C14.482 7.06228 15.1152 7.06228 15.5057 7.45281C15.8962 7.84333 15.8962 8.47649 15.5057 8.86702L11.5057 12.867C11.1152 13.2575 10.482 13.2575 10.0915 12.867L6.09148 8.86702C5.70095 8.47649 5.70095 7.84333 6.09148 7.45281Z" fill="#EB5757"/>
<path d="M25.4047 6.09024V13.5092H24.2817V7.21322H24.2382L22.4632 8.37243V7.30016L24.3143 6.09024H25.4047ZM29.9944 13.6323C29.4221 13.6299 28.933 13.479 28.5273 13.1795C28.1216 12.88 27.8113 12.4441 27.5963 11.8718C27.3814 11.2994 27.2739 10.6099 27.2739 9.80332C27.2739 8.99912 27.3814 8.31205 27.5963 7.74211C27.8137 7.17217 28.1252 6.73747 28.5309 6.438C28.9391 6.13854 29.4269 5.98881 29.9944 5.98881C30.562 5.98881 31.0486 6.13975 31.4543 6.44163C31.86 6.74109 32.1703 7.17579 32.3853 7.74573C32.6026 8.31326 32.7113 8.99912 32.7113 9.80332C32.7113 10.6124 32.6038 11.303 32.3889 11.8754C32.174 12.4453 31.8636 12.8813 31.4579 13.1831C31.0522 13.4826 30.5644 13.6323 29.9944 13.6323ZM29.9944 12.6651C30.4967 12.6651 30.8892 12.42 31.1717 11.9297C31.4567 11.4395 31.5992 10.7307 31.5992 9.80332C31.5992 9.18749 31.534 8.66706 31.4036 8.24202C31.2756 7.81456 31.0908 7.49095 30.8493 7.27118C30.6103 7.049 30.3253 6.93791 29.9944 6.93791C29.4945 6.93791 29.1021 7.18424 28.8171 7.6769C28.5321 8.16957 28.3884 8.87837 28.386 9.80332C28.386 10.4216 28.45 10.9444 28.578 11.3719C28.7084 11.7969 28.8932 12.1193 29.1323 12.3391C29.3714 12.5564 29.6587 12.6651 29.9944 12.6651ZM37.8689 12.1181V11.7269C37.8689 11.4467 37.9268 11.1907 38.0427 10.9589C38.1611 10.7246 38.3326 10.5375 38.5571 10.3974C38.7842 10.2549 39.0583 10.1837 39.3795 10.1837C39.7079 10.1837 39.9832 10.2537 40.2054 10.3938C40.4276 10.5339 40.5954 10.721 40.7089 10.9553C40.8248 11.1895 40.8828 11.4467 40.8828 11.7269V12.1181C40.8828 12.3983 40.8248 12.6554 40.7089 12.8897C40.593 13.1215 40.4227 13.3087 40.1981 13.4512C39.976 13.5913 39.7031 13.6613 39.3795 13.6613C39.0534 13.6613 38.7781 13.5913 38.5535 13.4512C38.3289 13.3087 38.1587 13.1215 38.0427 12.8897C37.9268 12.6554 37.8689 12.3983 37.8689 12.1181ZM38.7129 11.7269V12.1181C38.7129 12.3258 38.7624 12.5142 38.8614 12.6832C38.9605 12.8523 39.1331 12.9368 39.3795 12.9368C39.6234 12.9368 39.7936 12.8523 39.8902 12.6832C39.9868 12.5142 40.0351 12.3258 40.0351 12.1181V11.7269C40.0351 11.5192 39.988 11.3308 39.8939 11.1618C39.8021 10.9927 39.6306 10.9082 39.3795 10.9082C39.138 10.9082 38.9665 10.9927 38.8651 11.1618C38.7636 11.3308 38.7129 11.5192 38.7129 11.7269ZM34.1377 7.87252V7.48129C34.1377 7.20115 34.1956 6.94395 34.3116 6.70969C34.4299 6.47544 34.6014 6.28827 34.826 6.1482C35.053 6.00813 35.3271 5.9381 35.6483 5.9381C35.9767 5.9381 36.252 6.00813 36.4742 6.1482C36.6964 6.28827 36.8642 6.47544 36.9777 6.70969C37.0912 6.94395 37.148 7.20115 37.148 7.48129V7.87252C37.148 8.15266 37.09 8.40986 36.9741 8.64412C36.8606 8.87596 36.6916 9.06312 36.467 9.20561C36.2448 9.34568 35.9719 9.41571 35.6483 9.41571C35.3198 9.41571 35.0433 9.34568 34.8187 9.20561C34.5965 9.06312 34.4275 8.87596 34.3116 8.64412C34.1956 8.40986 34.1377 8.15266 34.1377 7.87252ZM34.9853 7.48129V7.87252C34.9853 8.08021 35.0336 8.26858 35.1302 8.43763C35.2293 8.60668 35.4019 8.69121 35.6483 8.69121C35.8898 8.69121 36.0588 8.60668 36.1554 8.43763C36.2544 8.26858 36.3039 8.08021 36.3039 7.87252V7.48129C36.3039 7.2736 36.2568 7.08523 36.1627 6.91618C36.0685 6.74713 35.897 6.6626 35.6483 6.6626C35.4068 6.6626 35.2353 6.74713 35.1339 6.91618C35.0349 7.08523 34.9853 7.2736 34.9853 7.48129ZM34.4818 13.5092L39.5823 6.09024H40.4481L35.3476 13.5092H34.4818Z" fill="#1D1E25"/>
</svg>
