<svg width="123" height="34" viewBox="0 0 123 34" fill="none" xmlns="http://www.w3.org/2000/svg">
<g clip-path="url(#clip0_1_2702)" filter="url(#filter0_d_1_2702)">
<path d="M44.6185 14.8519L43.9341 16.7792H43.8771C43.763 16.3446 43.5539 15.6833 43.2117 14.8897L39.5427 5.72542H35.9497V20.3315H38.326V11.3184C38.326 10.7516 38.326 10.1091 38.307 9.31554C38.288 8.91874 38.25 8.61641 38.231 8.38967H38.288C38.4021 8.95653 38.5351 9.37222 38.6302 9.63676L43.0406 20.2937H44.7136L49.086 9.54228C49.181 9.29664 49.2761 8.80536 49.3711 8.38967H49.4282C49.3711 9.4667 49.3331 10.4304 49.3141 11.0161V20.2748H51.8425V5.68763H48.3826L44.6185 14.8519ZM54.2378 9.80682H56.7092V20.2748H54.2378V9.80682ZM55.4925 5.38531C55.0743 5.38531 54.7321 5.53647 54.4469 5.801C54.1618 6.06554 54.0097 6.40565 54.0097 6.82135C54.0097 7.21815 54.1618 7.55827 54.4469 7.8228C54.7321 8.08734 55.0743 8.21961 55.4925 8.21961C55.9107 8.21961 56.2719 8.06844 56.5381 7.8228C56.8233 7.55827 56.9753 7.21815 56.9753 6.82135C56.9753 6.42455 56.8233 6.08443 56.5381 5.801C56.291 5.53647 55.9298 5.38531 55.4925 5.38531ZM65.473 9.71234C65.0168 9.61786 64.5415 9.56118 64.0853 9.56118C62.9637 9.56118 61.9371 9.80682 61.0816 10.2981C60.2261 10.7894 59.5418 11.4696 59.1045 12.3199C58.6483 13.1891 58.4201 14.1905 58.4201 15.3432C58.4201 16.3446 58.6483 17.2327 59.0855 18.0452C59.5227 18.8388 60.1311 19.4812 60.9485 19.9158C61.728 20.3504 62.6405 20.5772 63.667 20.5772C64.8457 20.5772 65.8533 20.3315 66.6517 19.878L66.6707 19.8591V17.5917L66.5757 17.6673C66.2145 17.9318 65.7962 18.1586 65.378 18.2908C64.9407 18.442 64.5415 18.5176 64.1993 18.5176C63.2108 18.5176 62.4314 18.2341 61.8801 17.6106C61.3097 17.0059 61.0246 16.1746 61.0246 15.1353C61.0246 14.0583 61.3097 13.208 61.8991 12.5844C62.4884 11.9609 63.2678 11.6397 64.2183 11.6397C65.0168 11.6397 65.8342 11.9042 66.5757 12.4333L66.6707 12.5089V10.1091L66.6517 10.0902C66.3285 9.95798 65.9673 9.80682 65.473 9.71234ZM73.6285 9.63676C73.0202 9.63676 72.4499 9.82571 71.9556 10.2225C71.5374 10.5626 71.2522 11.0539 71.0051 11.6397H70.9861V9.80682H68.5147V20.2748H70.9861V14.9275C70.9861 14.0205 71.1762 13.2647 71.5944 12.7167C72.0127 12.1498 72.545 11.8664 73.1913 11.8664C73.4194 11.8664 73.6476 11.9231 73.9327 11.9609C74.1989 12.0365 74.389 12.112 74.522 12.2065L74.6171 12.2821V9.82571L74.5601 9.80682C74.389 9.69344 74.0468 9.63676 73.6285 9.63676ZM80.3583 9.58007C78.6283 9.58007 77.2406 10.0902 76.271 11.0917C75.2825 12.0932 74.8072 13.4725 74.8072 15.2109C74.8072 16.8359 75.3015 18.1586 76.252 19.1222C77.2025 20.067 78.4952 20.5583 80.1111 20.5583C81.8031 20.5583 83.1528 20.0481 84.1224 19.0277C85.1109 18.0074 85.5862 16.6469 85.5862 14.9652C85.5862 13.3025 85.1299 11.9798 84.1984 11.0161C83.3049 10.0525 81.9932 9.58007 80.3583 9.58007ZM82.3354 17.6295C81.8791 18.2152 81.1567 18.4987 80.2632 18.4987C79.3697 18.4987 78.6473 18.2152 78.134 17.5917C77.6208 17.0059 77.3736 16.1557 77.3736 15.0786C77.3736 13.9638 77.6398 13.1135 78.134 12.5089C78.6473 11.9042 79.3507 11.6019 80.2442 11.6019C81.1187 11.6019 81.8031 11.8853 82.2973 12.4711C82.7916 13.0568 83.0578 13.9071 83.0578 15.0219C83.0197 16.1557 82.8106 17.0437 82.3354 17.6295ZM91.0992 14.1527C90.3198 13.8315 89.8255 13.5859 89.5974 13.378C89.4073 13.1891 89.3122 12.9245 89.3122 12.5844C89.3122 12.301 89.4263 12.0176 89.7114 11.8286C89.9966 11.6397 90.3198 11.5452 90.795 11.5452C91.2133 11.5452 91.6505 11.6208 92.0687 11.7341C92.487 11.8475 92.8672 12.0176 93.1714 12.2443L93.2664 12.3199V10.0147L93.2094 9.99577C92.9242 9.8824 92.544 9.76903 92.0878 9.67455C91.6315 9.59897 91.2133 9.56118 90.8711 9.56118C89.6924 9.56118 88.7229 9.84461 87.9625 10.4682C87.2021 11.0539 86.8409 11.8475 86.8409 12.7734C86.8409 13.2647 86.9169 13.6993 87.088 14.0583C87.2591 14.4173 87.5062 14.7574 87.8484 15.0408C88.1906 15.3054 88.6849 15.6077 89.3693 15.8911C89.9396 16.1368 90.3768 16.3257 90.643 16.4769C90.9091 16.628 91.0802 16.7981 91.2133 16.9304C91.3083 17.0815 91.3654 17.2705 91.3654 17.5161C91.3654 18.2152 90.8331 18.5554 89.7495 18.5554C89.3312 18.5554 88.894 18.4798 88.3807 18.3097C87.8674 18.1397 87.3922 17.894 86.9929 17.6106L86.8979 17.535V19.9347L86.9549 19.9536C87.3161 20.1237 87.7534 20.237 88.2857 20.3693C88.818 20.4638 89.2932 20.5394 89.7114 20.5394C90.9852 20.5394 92.0307 20.2559 92.7721 19.6324C93.5326 19.0277 93.9318 18.253 93.9318 17.2516C93.9318 16.5525 93.7417 15.9289 93.3234 15.4565C92.7721 15.003 92.0878 14.5307 91.0992 14.1527ZM100.452 9.58007C98.7224 9.58007 97.3347 10.0902 96.3651 11.0917C95.3956 12.0932 94.9013 13.4725 94.9013 15.2109C94.9013 16.8359 95.3956 18.1586 96.3461 19.1222C97.2966 20.067 98.5894 20.5583 100.205 20.5583C101.897 20.5583 103.247 20.0481 104.216 19.0277C105.205 18.0074 105.68 16.6469 105.68 14.9652C105.68 13.3025 105.224 11.9798 104.293 11.0161C103.399 10.0525 102.087 9.58007 100.452 9.58007ZM102.41 17.6295C101.954 18.2152 101.232 18.4987 100.338 18.4987C99.4258 18.4987 98.7224 18.2152 98.2091 17.5917C97.6959 17.0059 97.4487 16.1557 97.4487 15.0786C97.4487 13.9638 97.7149 13.1135 98.2091 12.5089C98.7224 11.9042 99.4258 11.6019 100.319 11.6019C101.175 11.6019 101.878 11.8853 102.372 12.4711C102.867 13.0568 103.133 13.9071 103.133 15.0219C103.133 16.1557 102.886 17.0437 102.41 17.6295ZM118.893 11.8286V9.80682H116.402V6.70798L116.326 6.72687L113.969 7.426L113.912 7.4449V9.80682H110.186V8.48414C110.186 7.87949 110.338 7.40711 110.604 7.10478C110.87 6.80246 111.269 6.65129 111.764 6.65129C112.106 6.65129 112.467 6.72687 112.866 6.89693L112.961 6.95362V4.81844L112.904 4.79955C112.562 4.68618 112.106 4.6106 111.517 4.6106C110.775 4.6106 110.129 4.78065 109.539 5.06408C108.95 5.3853 108.513 5.8199 108.19 6.40565C107.866 6.97251 107.695 7.61496 107.695 8.35188V9.80682H105.965V11.8097H107.695V20.2748H110.186V11.8286H113.912V17.2138C113.912 19.4246 114.957 20.5394 117.049 20.5394C117.391 20.5394 117.752 20.4827 118.094 20.426C118.455 20.3504 118.721 20.2559 118.874 20.1804L118.893 20.1615V18.1397L118.798 18.2152C118.645 18.3097 118.512 18.3853 118.284 18.442C118.094 18.4987 117.923 18.5176 117.79 18.5176C117.296 18.5176 116.954 18.4042 116.706 18.1208C116.478 17.8562 116.364 17.4216 116.364 16.7792V11.8286H118.893Z" fill="#737373"/>
<path d="M4.08813 0.812622H15.7416V12.3955H4.08813V0.812622Z" fill="#F25022"/>
<path d="M16.9583 0.812622H28.6117V12.3955H16.9583V0.812622Z" fill="#7FBA00"/>
<path d="M4.08813 13.6048H15.7416V25.1876H4.08813V13.6048Z" fill="#00A4EF"/>
<path d="M16.9583 13.6048H28.6117V25.1876H16.9583V13.6048Z" fill="#FFB900"/>
</g>
<defs>
<filter id="filter0_d_1_2702" x="0.0881348" y="0.812622" width="122.823" height="32.375" filterUnits="userSpaceOnUse" color-interpolation-filters="sRGB">
<feFlood flood-opacity="0" result="BackgroundImageFix"/>
<feColorMatrix in="SourceAlpha" type="matrix" values="0 0 0 0 0 0 0 0 0 0 0 0 0 0 0 0 0 0 127 0" result="hardAlpha"/>
<feOffset dy="4"/>
<feGaussianBlur stdDeviation="2"/>
<feComposite in2="hardAlpha" operator="out"/>
<feColorMatrix type="matrix" values="0 0 0 0 0 0 0 0 0 0 0 0 0 0 0 0 0 0 0.25 0"/>
<feBlend mode="normal" in2="BackgroundImageFix" result="effect1_dropShadow_1_2702"/>
<feBlend mode="normal" in="SourceGraphic" in2="effect1_dropShadow_1_2702" result="shape"/>
</filter>
<clipPath id="clip0_1_2702">
<rect width="114.824" height="24.375" fill="white" transform="translate(4.08813 0.812622)"/>
</clipPath>
</defs>
</svg>
