<svg width="80" height="28" viewBox="0 0 80 28" fill="none" xmlns="http://www.w3.org/2000/svg">
<path d="M65.972 27.7252C73.4811 27.7252 79.591 21.5407 79.591 13.9402C79.591 6.33515 73.4811 0.155151 65.972 0.155151C58.4614 0.155151 52.353 6.33515 52.353 13.9402C52.353 21.5407 58.4614 27.7252 65.972 27.7252ZM65.972 9.02465C68.648 9.02465 70.8274 11.2297 70.8274 13.9387C70.8274 16.6476 68.6466 18.8497 65.9705 18.8497C63.2929 18.8497 61.1166 16.6477 61.1166 13.9372C61.1166 11.2252 63.2944 9.02165 65.9705 9.02165L65.972 9.02465ZM14.5897 27.7252C22.0988 27.7252 28.2087 21.5407 28.2087 13.9402C28.2087 6.33515 22.0988 0.155151 14.5897 0.155151C7.0821 0.155151 0.970703 6.33515 0.970703 13.9402C0.970703 21.5407 7.0821 27.7252 14.5897 27.7252ZM14.5897 9.02465C17.2673 9.02465 19.4451 11.2297 19.4451 13.9387C19.4451 16.6476 17.2673 18.8497 14.5897 18.8497C11.9136 18.8497 9.73728 16.6477 9.73728 13.9372C9.73728 11.2252 11.9151 9.02165 14.5897 9.02165V9.02465ZM40.2734 8.71415L36.0922 0.335151H26.3023L35.4463 18.6652V27.2947H45.1019V18.6652L54.2459 0.335151H44.4516L40.2749 8.71415H40.2734Z" fill="#EE2E24"/>
</svg>
