<svg width="49" height="29" viewBox="0 0 49 29" fill="none" xmlns="http://www.w3.org/2000/svg">
<g filter="url(#filter0_d_1_2465)">
<path fill-rule="evenodd" clip-rule="evenodd" d="M9.57927 7.54179C9.96979 7.15127 10.603 7.15127 10.9935 7.54179L14.2864 10.8347L17.5793 7.54179C17.9698 7.15127 18.603 7.15127 18.9935 7.54179C19.384 7.93232 19.384 8.56548 18.9935 8.95601L14.9935 12.956C14.603 13.3465 13.9698 13.3465 13.5793 12.956L9.57927 8.95601C9.18875 8.56548 9.18875 7.93232 9.57927 7.54179Z" fill="#EB5757"/>
<path d="M28.8925 6.17923V13.5981H27.7695V7.30221H27.726L25.951 8.46142V7.38915L27.8021 6.17923H28.8925ZM33.4822 13.7213C32.9099 13.7189 32.4208 13.568 32.0151 13.2685C31.6094 12.969 31.299 12.5331 31.0841 11.9608C30.8692 11.3884 30.7617 10.6989 30.7617 9.89231C30.7617 9.08811 30.8692 8.40104 31.0841 7.8311C31.3015 7.26116 31.613 6.82646 32.0187 6.52699C32.4269 6.22753 32.9147 6.0778 33.4822 6.0778C34.0497 6.0778 34.5364 6.22874 34.9421 6.53062C35.3478 6.83008 35.6581 7.26478 35.8731 7.83472C36.0904 8.40225 36.1991 9.08811 36.1991 9.89231C36.1991 10.7013 36.0916 11.392 35.8767 11.9644C35.6618 12.5343 35.3514 12.9702 34.9457 13.2721C34.54 13.5716 34.0522 13.7213 33.4822 13.7213ZM33.4822 12.7541C33.9845 12.7541 34.377 12.509 34.6595 12.0187C34.9445 11.5285 35.087 10.8197 35.087 9.89231C35.087 9.27648 35.0218 8.75605 34.8914 8.33101C34.7634 7.90355 34.5786 7.57994 34.3371 7.36017C34.098 7.13799 33.8131 7.0269 33.4822 7.0269C32.9823 7.0269 32.5899 7.27323 32.3049 7.76589C32.0199 8.25856 31.8762 8.96736 31.8738 9.89231C31.8738 10.5106 31.9378 11.0334 32.0658 11.4609C32.1962 11.8859 32.381 12.2083 32.6201 12.4281C32.8591 12.6454 33.1465 12.7541 33.4822 12.7541ZM41.3567 12.2071V11.8159C41.3567 11.5357 41.4146 11.2797 41.5305 11.0479C41.6489 10.8136 41.8203 10.6265 42.0449 10.4864C42.272 10.3439 42.5461 10.2727 42.8673 10.2727C43.1957 10.2727 43.471 10.3427 43.6932 10.4828C43.9154 10.6229 44.0832 10.81 44.1967 11.0443C44.3126 11.2785 44.3706 11.5357 44.3706 11.8159V12.2071C44.3706 12.4872 44.3126 12.7444 44.1967 12.9787C44.0808 13.2105 43.9105 13.3977 43.6859 13.5402C43.4638 13.6803 43.1909 13.7503 42.8673 13.7503C42.5412 13.7503 42.2659 13.6803 42.0413 13.5402C41.8167 13.3977 41.6465 13.2105 41.5305 12.9787C41.4146 12.7444 41.3567 12.4872 41.3567 12.2071ZM42.2007 11.8159V12.2071C42.2007 12.4148 42.2502 12.6032 42.3492 12.7722C42.4482 12.9413 42.6209 13.0258 42.8673 13.0258C43.1112 13.0258 43.2814 12.9413 43.378 12.7722C43.4746 12.6032 43.5229 12.4148 43.5229 12.2071V11.8159C43.5229 11.6082 43.4758 11.4198 43.3816 11.2508C43.2899 11.0817 43.1184 10.9972 42.8673 10.9972C42.6257 10.9972 42.4543 11.0817 42.3529 11.2508C42.2514 11.4198 42.2007 11.6082 42.2007 11.8159ZM37.6255 7.96151V7.57028C37.6255 7.29014 37.6834 7.03294 37.7994 6.79868C37.9177 6.56443 38.0892 6.37726 38.3137 6.23719C38.5408 6.09712 38.8149 6.02709 39.1361 6.02709C39.4645 6.02709 39.7398 6.09712 39.962 6.23719C40.1842 6.37726 40.352 6.56443 40.4655 6.79868C40.579 7.03294 40.6358 7.29014 40.6358 7.57028V7.96151C40.6358 8.24165 40.5778 8.49885 40.4619 8.73311C40.3484 8.96495 40.1793 9.15211 39.9547 9.2946C39.7326 9.43467 39.4597 9.5047 39.1361 9.5047C38.8076 9.5047 38.5311 9.43467 38.3065 9.2946C38.0843 9.15211 37.9153 8.96495 37.7994 8.73311C37.6834 8.49885 37.6255 8.24165 37.6255 7.96151ZM38.4731 7.57028V7.96151C38.4731 8.1692 38.5214 8.35757 38.618 8.52662C38.7171 8.69567 38.8897 8.7802 39.1361 8.7802C39.3776 8.7802 39.5466 8.69567 39.6432 8.52662C39.7422 8.35757 39.7917 8.1692 39.7917 7.96151V7.57028C39.7917 7.36259 39.7446 7.17422 39.6505 7.00517C39.5563 6.83612 39.3848 6.75159 39.1361 6.75159C38.8946 6.75159 38.7231 6.83612 38.6217 7.00517C38.5226 7.17422 38.4731 7.36259 38.4731 7.57028ZM37.9696 13.5981L43.0701 6.17923H43.9359L38.8354 13.5981H37.9696Z" fill="#1D1E25"/>
</g>
<defs>
<filter id="filter0_d_1_2465" x="0.286377" y="0.248901" width="48.0842" height="28" filterUnits="userSpaceOnUse" color-interpolation-filters="sRGB">
<feFlood flood-opacity="0" result="BackgroundImageFix"/>
<feColorMatrix in="SourceAlpha" type="matrix" values="0 0 0 0 0 0 0 0 0 0 0 0 0 0 0 0 0 0 127 0" result="hardAlpha"/>
<feOffset dy="4"/>
<feGaussianBlur stdDeviation="2"/>
<feComposite in2="hardAlpha" operator="out"/>
<feColorMatrix type="matrix" values="0 0 0 0 0 0 0 0 0 0 0 0 0 0 0 0 0 0 0.25 0"/>
<feBlend mode="normal" in2="BackgroundImageFix" result="effect1_dropShadow_1_2465"/>
<feBlend mode="normal" in="SourceGraphic" in2="effect1_dropShadow_1_2465" result="shape"/>
</filter>
</defs>
</svg>
