<svg width="24" height="24" viewBox="0 0 24 24" fill="none" xmlns="http://www.w3.org/2000/svg">
<path fill-rule="evenodd" clip-rule="evenodd" d="M12 21.5999C17.302 21.5999 21.6 17.3018 21.6 11.9999C21.6 6.69797 17.302 2.3999 12 2.3999C6.69809 2.3999 2.40002 6.69797 2.40002 11.9999C2.40002 17.3018 6.69809 21.5999 12 21.5999ZM16.4486 10.4484C16.9172 9.9798 16.9172 9.22 16.4486 8.75137C15.9799 8.28275 15.2201 8.28275 14.7515 8.75137L10.8 12.7028L9.24855 11.1514C8.77992 10.6827 8.02013 10.6827 7.5515 11.1514C7.08287 11.62 7.08287 12.3798 7.5515 12.8484L9.9515 15.2484C10.4201 15.7171 11.1799 15.7171 11.6486 15.2484L16.4486 10.4484Z" fill="#7E8492"/>
</svg>
