<svg width="162" height="162" viewBox="0 0 162 162" fill="none" xmlns="http://www.w3.org/2000/svg">
<rect x="67.0284" y="97.4426" width="3.85427" height="41.4334" transform="rotate(-135 67.0284 97.4426)" fill="#161A34"/>
<rect x="69.8915" y="68.9634" width="3.85427" height="26.9799" transform="rotate(-90 69.8915 68.9634)" fill="#161A34"/>
<rect x="96.8912" y="92.1089" width="3.85427" height="26.9799" transform="rotate(180 96.8912 92.1089)" fill="#161A34"/>
<path d="M88.4261 25.0644L87.8525 28.2714C87.7051 28.4077 87.4877 28.5474 87.2002 28.6904C86.9172 28.8303 86.5561 28.9303 86.1167 28.9906C85.6774 29.0509 85.1481 29.0257 84.5291 28.915C84.0023 28.8208 83.5355 28.646 83.1288 28.3907C82.7228 28.1316 82.3911 27.8004 82.1339 27.3973C81.8805 26.9948 81.7116 26.5301 81.6273 26.0031C81.5437 25.4723 81.559 24.8877 81.6731 24.2494L81.7773 23.6668C81.8908 23.0324 82.0708 22.4812 82.3171 22.0134C82.5681 21.5424 82.8744 21.1607 83.2363 20.8683C83.5981 20.5758 84.0063 20.379 84.4609 20.2778C84.9201 20.1734 85.4188 20.1694 85.9571 20.2657C86.6454 20.3888 87.1939 20.6059 87.6025 20.9171C88.0157 21.2252 88.3092 21.6031 88.4831 22.0508C88.6569 22.4986 88.7301 22.9879 88.7026 23.5187L87.2838 23.2649C87.2899 22.9644 87.2463 22.6867 87.153 22.432C87.0635 22.1779 86.9074 21.9634 86.6847 21.7887C86.4665 21.6108 86.1633 21.4871 85.7749 21.4176C85.4404 21.3578 85.1349 21.3686 84.8584 21.4501C84.5819 21.5316 84.337 21.6802 84.1238 21.8961C83.9145 22.1126 83.7359 22.3902 83.588 22.7288C83.4401 23.0674 83.3256 23.4636 83.2444 23.9173L83.1382 24.5114C83.0556 24.9729 83.0304 25.391 83.0626 25.7658C83.0986 26.1413 83.1869 26.4686 83.3275 26.7477C83.4718 27.0275 83.6673 27.2549 83.9137 27.4299C84.1609 27.6011 84.4537 27.717 84.7921 27.7775C85.1227 27.8366 85.3986 27.8582 85.6198 27.8422C85.8416 27.8224 86.0209 27.785 86.1577 27.7301C86.299 27.6721 86.4108 27.6127 86.4931 27.552L86.7913 25.8851L85.0436 25.5725L85.2365 24.4939L88.4261 25.0644Z" fill="#161A34"/>
<path d="M95.9622 29.9371L95.5981 31.0448L91.2953 29.6304L91.6594 28.5227L95.9622 29.9371ZM94.3546 21.6557L91.6905 29.7603L90.2933 29.301L92.9574 21.1964L94.3546 21.6557ZM96.5875 26.1397L96.2289 27.2307L92.4883 26.0011L92.8469 24.9101L96.5875 26.1397ZM98.2343 22.931L97.8684 24.0443L93.5934 22.639L93.9594 21.5258L98.2343 22.931Z" fill="#161A34"/>
<path d="M104.712 25.1668L100.899 32.7983L99.5935 32.1462L103.407 24.5147L104.712 25.1668ZM107.107 26.3637L106.583 27.412L100.509 24.3765L101.032 23.3282L107.107 26.3637Z" fill="#161A34"/>
<path d="M115.235 31.0078L110.116 37.8328L108.94 36.9504L114.059 30.1254L115.235 31.0078Z" fill="#161A34"/>
<path d="M123.491 37.8175L117.264 43.6495L116.259 42.5762L118.104 35.6059L113.643 39.7836L112.638 38.7102L118.864 32.8782L119.87 33.9516L118.025 40.9384L122.493 36.7527L123.491 37.8175Z" fill="#161A34"/>
<path d="M131.794 47.8637L124.386 52.0942L123.662 50.8273L131.071 46.5968L131.794 47.8637ZM133.122 50.1891L132.105 50.7702L128.737 44.8729L129.755 44.2918L133.122 50.1891Z" fill="#161A34"/>
<path d="M133.491 59.9229L133.049 60.0793C132.441 60.2943 131.868 60.408 131.33 60.4204C130.791 60.4328 130.301 60.3517 129.858 60.177C129.416 60.006 129.032 59.7481 128.707 59.4032C128.386 59.057 128.137 58.6353 127.961 58.1382C127.787 57.6448 127.715 57.1624 127.747 56.6911C127.785 56.2222 127.92 55.7786 128.153 55.3604C128.386 54.9422 128.715 54.5649 129.138 54.2285C129.563 53.8957 130.08 53.6218 130.687 53.4068L131.129 53.2504C131.737 53.0353 132.309 52.9241 132.845 52.9167C133.384 52.9079 133.876 52.9909 134.319 53.1656C134.767 53.3427 135.151 53.6025 135.471 53.945C135.796 54.2898 136.046 54.709 136.221 55.2024C136.397 55.6996 136.467 56.1844 136.431 56.657C136.399 57.1283 136.264 57.5719 136.026 57.9877C135.791 58.4022 135.461 58.774 135.034 59.1031C134.613 59.4345 134.098 59.7078 133.491 59.9229ZM132.558 58.6928L133.011 58.5325C133.46 58.3735 133.841 58.1892 134.152 57.9796C134.468 57.7724 134.712 57.5431 134.884 57.2916C135.061 57.0424 135.166 56.7755 135.197 56.4908C135.233 56.2047 135.197 55.9089 135.088 55.6032C134.98 55.2976 134.823 55.0466 134.617 54.8502C134.414 54.6526 134.165 54.5108 133.869 54.4248C133.579 54.3412 133.245 54.3165 132.867 54.3506C132.494 54.3835 132.082 54.4794 131.633 54.6384L131.18 54.7987C130.731 54.9577 130.349 55.1427 130.034 55.3536C129.719 55.5644 129.472 55.7969 129.292 56.0511C129.118 56.3075 129.012 56.577 128.976 56.8593C128.942 57.1404 128.98 57.4338 129.088 57.7394C129.198 58.0487 129.354 58.3022 129.556 58.4998C129.762 58.6962 130.013 58.8355 130.307 58.9178C130.605 58.9988 130.942 59.0204 131.318 58.9826C131.696 58.9484 132.109 58.8518 132.558 58.6928Z" fill="#161A34"/>
<path d="M139.994 66.9823L140.252 68.4243L134.64 69.4281C134.002 69.5423 133.443 69.4995 132.962 69.2997C132.482 69.0998 132.09 68.7811 131.785 68.3435C131.486 67.9091 131.283 67.3996 131.179 66.8152C131.071 66.2115 131.082 65.6539 131.213 65.1424C131.347 64.6302 131.606 64.1991 131.987 63.8491C132.37 63.5029 132.88 63.2727 133.519 63.1585L139.131 62.1547L139.389 63.5966L133.777 64.6005C133.373 64.6727 133.053 64.8014 132.816 64.9866C132.583 65.1711 132.428 65.4013 132.35 65.6771C132.273 65.9528 132.265 66.2638 132.327 66.6098C132.388 66.9559 132.503 67.2429 132.671 67.4708C132.839 67.7026 133.065 67.8647 133.347 67.957C133.634 68.0487 133.979 68.0584 134.382 67.9862L139.994 66.9823Z" fill="#161A34"/>
<path d="M135.707 76.8258L135.735 78.2904C135.176 78.2543 134.675 78.1077 134.233 77.8505C133.794 77.5933 133.445 77.227 133.186 76.7514C132.927 76.2758 132.79 75.6944 132.777 75.007C132.767 74.4798 132.851 74.0034 133.031 73.578C133.214 73.1525 133.476 72.7861 133.818 72.4786C134.164 72.1711 134.583 71.9325 135.076 71.7628C135.569 71.597 136.122 71.5082 136.735 71.4964L137.444 71.4827C138.057 71.4709 138.614 71.5402 139.113 71.6908C139.612 71.8452 140.04 72.0714 140.397 72.3692C140.759 72.667 141.037 73.0269 141.233 73.449C141.429 73.875 141.532 74.3555 141.542 74.8906C141.555 75.5701 141.441 76.1467 141.2 76.6201C140.959 77.0936 140.621 77.4635 140.184 77.7298C139.748 78 139.246 78.1699 138.676 78.2395L138.648 76.7749C139.015 76.7288 139.327 76.6368 139.586 76.4989C139.846 76.365 140.041 76.1698 140.173 75.9133C140.309 75.6567 140.372 75.3234 140.365 74.9133C140.358 74.5774 140.29 74.2857 140.16 74.0382C140.03 73.7906 139.843 73.5852 139.597 73.422C139.352 73.2587 139.051 73.1375 138.694 73.0585C138.341 72.9832 137.937 72.95 137.484 72.9587L136.764 72.9727C136.334 72.9809 135.944 73.0256 135.594 73.1066C135.248 73.1914 134.952 73.3143 134.705 73.4754C134.458 73.6403 134.269 73.8471 134.137 74.0958C134.005 74.3445 133.942 74.6407 133.949 74.9844C133.957 75.4023 134.03 75.7388 134.167 75.994C134.305 76.2531 134.502 76.4466 134.759 76.5745C135.019 76.7062 135.335 76.79 135.707 76.8258Z" fill="#161A34"/>
<path d="M137.783 86.808L136.632 86.6203L137.361 82.1501L138.512 82.3378L137.783 86.808ZM141.969 83.2698L133.549 81.8965L133.786 80.4449L142.206 81.8183L141.969 83.2698ZM141.117 88.4976L132.697 87.1243L132.933 85.6785L141.353 87.0519L141.117 88.4976Z" fill="#161A34"/>
<path d="M125.782 115.312L123.286 113.218C123.241 113.022 123.229 112.764 123.248 112.444C123.267 112.129 123.36 111.766 123.527 111.355C123.693 110.944 123.979 110.497 124.383 110.015C124.727 109.605 125.111 109.288 125.535 109.062C125.962 108.839 126.414 108.716 126.892 108.694C127.367 108.674 127.854 108.759 128.353 108.949C128.855 109.14 129.354 109.445 129.851 109.862L130.304 110.242C130.798 110.656 131.186 111.087 131.469 111.533C131.753 111.985 131.931 112.441 132.005 112.9C132.078 113.36 132.046 113.812 131.907 114.257C131.769 114.707 131.524 115.141 131.173 115.56C130.723 116.096 130.262 116.463 129.789 116.663C129.316 116.868 128.842 116.934 128.367 116.862C127.892 116.79 127.431 116.61 126.985 116.322L127.911 115.217C128.169 115.372 128.431 115.473 128.699 115.519C128.964 115.568 129.227 115.539 129.49 115.433C129.753 115.332 130.011 115.131 130.265 114.829C130.483 114.568 130.626 114.298 130.693 114.018C130.76 113.737 130.753 113.451 130.672 113.159C130.588 112.869 130.436 112.576 130.216 112.279C129.996 111.982 129.71 111.686 129.357 111.39L128.894 111.002C128.535 110.7 128.185 110.47 127.844 110.312C127.5 110.156 127.173 110.069 126.861 110.052C126.546 110.038 126.252 110.095 125.977 110.221C125.706 110.35 125.459 110.546 125.238 110.81C125.022 111.067 124.866 111.296 124.77 111.495C124.677 111.698 124.62 111.872 124.6 112.018C124.579 112.169 124.575 112.296 124.587 112.397L125.884 113.486L127.025 112.126L127.865 112.83L125.782 115.312Z" fill="#161A34"/>
<path d="M117.527 119.657L116.749 118.788L120.121 115.765L120.9 116.633L117.527 119.657ZM125.507 122.395L119.812 116.043L120.907 115.061L126.602 121.413L125.507 122.395ZM120.506 122.093L119.74 121.238L122.672 118.609L123.438 119.465L120.506 122.093ZM122.466 125.121L121.683 124.248L125.034 121.245L125.816 122.117L122.466 125.121Z" fill="#161A34"/>
<path d="M117.455 129.45L112.718 122.355L113.931 121.545L118.668 128.64L117.455 129.45ZM115.228 130.937L114.577 129.962L120.225 126.192L120.876 127.166L115.228 130.937Z" fill="#161A34"/>
<path d="M107.27 135.605L103.888 127.773L105.238 127.19L108.62 135.022L107.27 135.605Z" fill="#161A34"/>
<path d="M96.9483 139.455L95.0313 131.142L96.4644 130.811L101.566 135.906L100.193 129.951L101.626 129.621L103.543 137.934L102.11 138.264L96.9941 133.16L98.3699 139.127L96.9483 139.455Z" fill="#161A34"/>
<path d="M84.1001 141.557L84.166 133.026L85.6249 133.037L85.5591 141.568L84.1001 141.557ZM81.4225 141.536L81.4315 140.364L88.2223 140.417L88.2133 141.588L81.4225 141.536Z" fill="#161A34"/>
<path d="M72.7723 136.95L72.8584 136.489C72.9767 135.856 73.1654 135.303 73.4245 134.831C73.6835 134.358 73.9996 133.974 74.3728 133.679C74.7421 133.382 75.1575 133.179 75.6189 133.071C76.0795 132.966 76.569 132.962 77.0874 133.059C77.6019 133.155 78.0551 133.335 78.4469 133.599C78.8341 133.866 79.1503 134.205 79.3953 134.617C79.6404 135.028 79.8023 135.501 79.8812 136.037C79.9562 136.571 79.9345 137.155 79.8162 137.789L79.7301 138.25C79.6117 138.883 79.4215 139.434 79.1593 139.901C78.8964 140.373 78.5784 140.757 78.2052 141.052C77.8275 141.351 77.4102 141.554 76.9534 141.659C76.492 141.768 76.0041 141.774 75.4895 141.678C74.9711 141.581 74.5164 141.399 74.1253 141.131C73.7335 140.867 73.4174 140.528 73.1769 140.113C72.9357 139.703 72.7795 139.23 72.7084 138.697C72.6326 138.166 72.6539 137.584 72.7723 136.95ZM74.3041 136.759L74.2158 137.232C74.1283 137.7 74.0973 138.121 74.1228 138.496C74.1437 138.873 74.2198 139.199 74.3513 139.474C74.4782 139.752 74.6569 139.976 74.8874 140.147C75.1171 140.321 75.3914 140.437 75.7101 140.497C76.0288 140.557 76.3248 140.546 76.598 140.466C76.8705 140.39 77.1181 140.245 77.3406 140.033C77.5586 139.823 77.7474 139.546 77.9069 139.203C78.0658 138.863 78.189 138.459 78.2765 137.99L78.3647 137.518C78.4522 137.049 78.4836 136.626 78.4588 136.248C78.4341 135.87 78.3567 135.539 78.2267 135.257C78.0921 134.977 77.9119 134.751 77.686 134.578C77.4593 134.408 77.1866 134.294 76.8679 134.234C76.5454 134.174 76.2478 134.182 75.9753 134.258C75.702 134.338 75.4561 134.485 75.2374 134.698C75.018 134.916 74.8304 135.197 74.6747 135.541C74.5151 135.885 74.3916 136.291 74.3041 136.759Z" fill="#161A34"/>
<path d="M63.5032 139.059L62.126 138.56L64.0686 133.2C64.2895 132.59 64.6068 132.127 65.0202 131.812C65.4337 131.496 65.9061 131.317 66.4374 131.272C66.9636 131.23 67.5059 131.311 68.0641 131.513C68.6407 131.722 69.1175 132.011 69.4947 132.38C69.8706 132.753 70.1143 133.193 70.226 133.699C70.334 134.203 70.2775 134.76 70.0566 135.37L68.114 140.73L66.7368 140.231L68.6794 134.871C68.8192 134.485 68.8682 134.143 68.8265 133.846C68.7834 133.552 68.662 133.302 68.4622 133.097C68.2625 132.891 67.9973 132.729 67.6668 132.609C67.3362 132.489 67.0303 132.445 66.749 132.476C66.464 132.506 66.2109 132.619 65.9895 132.818C65.7668 133.019 65.5855 133.313 65.4458 133.699L63.5032 139.059Z" fill="#161A34"/>
<path d="M57.0332 130.362L55.7532 129.649C56.0658 129.184 56.4445 128.825 56.8893 128.572C57.3323 128.322 57.8245 128.205 58.3659 128.22C58.9073 128.235 59.4784 128.41 60.0791 128.744C60.5399 129 60.9091 129.313 61.1865 129.682C61.4621 130.055 61.6468 130.466 61.7406 130.916C61.8324 131.369 61.8278 131.852 61.7265 132.363C61.6218 132.873 61.4203 133.395 61.1221 133.931L60.7774 134.551C60.4792 135.087 60.1395 135.532 59.7583 135.888C59.3738 136.242 58.9629 136.498 58.5257 136.657C58.0866 136.82 57.6354 136.879 57.1722 136.836C56.7056 136.791 56.2384 136.638 55.7708 136.378C55.1769 136.048 54.7359 135.659 54.4478 135.213C54.1598 134.766 54.0105 134.288 53.9998 133.777C53.9857 133.264 54.0918 132.744 54.3179 132.217L55.5979 132.929C55.4535 133.269 55.3757 133.586 55.3645 133.879C55.3498 134.17 55.4202 134.437 55.5756 134.68C55.7291 134.927 55.9851 135.149 56.3435 135.349C56.637 135.512 56.9234 135.6 57.2026 135.612C57.4819 135.625 57.7538 135.566 58.0183 135.436C58.2828 135.306 58.5391 135.107 58.787 134.838C59.0296 134.571 59.2611 134.239 59.4814 133.843L59.8319 133.213C60.0408 132.838 60.1983 132.478 60.3044 132.135C60.4052 131.793 60.4481 131.475 60.4331 131.181C60.4147 130.884 60.3313 130.617 60.1827 130.377C60.0341 130.138 59.8097 129.935 59.5093 129.768C59.1441 129.565 58.8165 129.459 58.5267 129.449C58.2334 129.438 57.967 129.511 57.7275 129.668C57.4826 129.827 57.2512 130.058 57.0332 130.362Z" fill="#161A34"/>
<path d="M47.5681 127.262L48.3078 126.361L51.809 129.234L51.0693 130.136L47.5681 127.262ZM48.5284 132.659L53.9406 126.064L55.0775 126.997L49.6652 133.592L48.5284 132.659ZM44.4339 129.299L49.8461 122.704L50.9784 123.633L45.5662 130.228L44.4339 129.299Z" fill="#161A34"/>
<path d="M28.9361 102.765L31.9947 101.644C32.1868 101.702 32.417 101.82 32.6855 101.996C32.949 102.17 33.2175 102.431 33.4911 102.78C33.7647 103.129 34.0097 103.599 34.2262 104.189C34.4105 104.692 34.4949 105.183 34.4795 105.663C34.4604 106.144 34.3417 106.597 34.1232 107.023C33.9034 107.445 33.5872 107.825 33.1746 108.163C32.7584 108.503 32.2459 108.785 31.6371 109.008L31.0814 109.212C30.4763 109.434 29.9096 109.556 29.3814 109.579C28.8481 109.6 28.364 109.528 27.9291 109.363C27.4941 109.198 27.1183 108.945 26.8017 108.603C26.48 108.259 26.2251 107.83 26.0368 107.317C25.7961 106.66 25.7071 106.077 25.7698 105.568C25.8275 105.055 26.0058 104.611 26.3048 104.236C26.6039 103.86 26.9895 103.55 27.4617 103.306L27.958 104.659C27.6954 104.805 27.4776 104.983 27.3046 105.192C27.1303 105.397 27.0238 105.64 26.9852 105.921C26.9415 106.199 26.9876 106.523 27.1235 106.894C27.2405 107.213 27.4038 107.471 27.6136 107.669C27.8234 107.866 28.0752 108.003 28.3691 108.078C28.6617 108.15 28.9914 108.164 29.3584 108.121C29.7254 108.078 30.1253 107.977 30.5581 107.818L31.1247 107.611C31.5648 107.449 31.9386 107.26 32.246 107.043C32.5521 106.823 32.7903 106.582 32.9604 106.32C33.1293 106.054 33.2271 105.77 33.254 105.469C33.2772 105.17 33.2297 104.858 33.1113 104.536C32.9957 104.22 32.8752 103.971 32.7499 103.788C32.6209 103.607 32.4982 103.471 32.3819 103.38C32.2605 103.287 32.1528 103.221 32.0589 103.18L30.4691 103.763L31.0803 105.43L30.0516 105.807L28.9361 102.765Z" fill="#161A34"/>
<path d="M29.2867 93.4905L30.4277 93.2502L31.3611 97.6823L30.2201 97.9226L29.2867 93.4905ZM22.9273 99.0334L31.2754 97.2752L31.5785 98.7144L23.2303 100.472L22.9273 99.0334ZM25.6876 94.8533L26.8114 94.6166L27.6228 98.4696L26.499 98.7063L25.6876 94.8533ZM22.0856 95.037L23.2323 94.7955L24.1597 99.1989L23.013 99.4405L22.0856 95.037Z" fill="#161A34"/>
<path d="M20.8089 88.4022L29.3239 87.8759L29.4139 89.3321L20.8989 89.8584L20.8089 88.4022ZM20.6437 85.7295L21.8133 85.6572L22.2323 92.4353L21.0626 92.5076L20.6437 85.7295Z" fill="#161A34"/>
<path d="M20.5776 76.513L29.0519 77.4973L28.8822 78.9582L20.4079 77.9739L20.5776 76.513Z" fill="#161A34"/>
<path d="M22.3702 65.6979L30.5331 68.1777L30.1056 69.5849L23.146 71.4695L28.9934 73.2459L28.5659 74.6531L20.403 72.1733L20.8305 70.7661L27.8048 68.8737L21.9461 67.0939L22.3702 65.6979Z" fill="#161A34"/>
<path d="M26.8778 53.6169L34.239 57.929L33.5016 59.1879L26.1403 54.8758L26.8778 53.6169ZM28.2312 51.3064L29.2424 51.8987L25.8099 57.7584L24.7987 57.1661L28.2312 51.3064Z" fill="#161A34"/>
<path d="M36.565 46.02L36.9207 46.3252C37.4099 46.7449 37.794 47.185 38.073 47.6457C38.352 48.1064 38.5262 48.5723 38.5954 49.0435C38.6673 49.5117 38.6346 49.9727 38.4976 50.4264C38.3576 50.8776 38.1159 51.3033 37.7725 51.7035C37.4317 52.1008 37.049 52.4029 36.6243 52.6099C36.1993 52.8114 35.7474 52.9152 35.2686 52.9214C34.7898 52.9275 34.299 52.8307 33.7962 52.6309C33.2959 52.4282 32.8012 52.1169 32.312 51.6973L31.9562 51.3921C31.467 50.9724 31.0857 50.532 30.8122 50.0709C30.5357 49.6073 30.3628 49.1399 30.2936 48.6687C30.2239 48.192 30.2578 47.7295 30.3952 47.2813C30.5323 46.8276 30.7712 46.4021 31.112 46.0049C31.4554 45.6046 31.8409 45.3023 32.2685 45.0978C32.6931 44.8908 33.145 44.787 33.6242 44.7864C34.1005 44.7832 34.5875 44.8845 35.0852 45.0902C35.5825 45.2904 36.0758 45.6003 36.565 46.02ZM35.9631 47.4414L35.5985 47.1286C35.2368 46.8183 34.8875 46.5804 34.5508 46.415C34.2136 46.2441 33.8931 46.1468 33.5893 46.1229C33.2851 46.0935 33.0017 46.136 32.7389 46.2503C32.4732 46.362 32.2348 46.5409 32.0237 46.787C31.8126 47.033 31.6733 47.2944 31.6058 47.571C31.5354 47.8451 31.5365 48.1318 31.6092 48.4309C31.6816 48.7246 31.8265 49.0265 32.0442 49.3368C32.2589 49.6445 32.547 49.9535 32.9087 50.2638L33.2734 50.5766C33.6351 50.8869 33.9858 51.126 34.3255 51.294C34.6653 51.4619 34.99 51.5603 35.2997 51.5893C35.609 51.6127 35.8952 51.5701 36.1584 51.4613C36.4186 51.35 36.6542 51.1713 36.8653 50.9252C37.079 50.6762 37.221 50.4146 37.2915 50.1405C37.359 49.8639 37.3551 49.5774 37.2798 49.2812C37.2015 48.9825 37.0523 48.6795 36.8321 48.3722C36.6145 48.062 36.3248 47.7517 35.9631 47.4414Z" fill="#161A34"/>
<path d="M39.3678 36.9303L40.4865 35.9846L44.1671 40.3386C44.5857 40.8338 44.8289 41.3392 44.8965 41.8549C44.9642 42.3706 44.8849 42.8698 44.6588 43.3525C44.4331 43.8298 44.0935 44.26 43.6401 44.6434C43.1717 45.0393 42.6835 45.3088 42.1753 45.4519C41.6646 45.5921 41.1622 45.5846 40.6679 45.4296C40.1767 45.272 39.7217 44.9456 39.3031 44.4504L35.6225 40.0965L36.7412 39.1508L40.4218 43.5047C40.6866 43.8179 40.9584 44.0306 41.2373 44.1427C41.5136 44.2517 41.7906 44.2708 42.0682 44.1998C42.3458 44.1288 42.6188 43.9799 42.8873 43.7529C43.1558 43.5259 43.3466 43.2828 43.4598 43.0234C43.576 42.7615 43.6033 42.4852 43.5418 42.1945C43.4777 41.9009 43.3132 41.5975 43.0484 41.2842L39.3678 36.9303Z" fill="#161A34"/>
<path d="M50.1818 35.602L51.4375 34.8477C51.685 35.3507 51.8075 35.858 51.8051 36.3699C51.8007 36.8783 51.6569 37.3634 51.3738 37.8251C51.0906 38.2869 50.6544 38.6947 50.0651 39.0488C49.613 39.3203 49.1579 39.4844 48.6997 39.5409C48.2395 39.594 47.791 39.549 47.3541 39.4059C46.9152 39.2594 46.4994 39.0148 46.1067 38.672C45.7173 38.3272 45.3647 37.8919 45.0489 37.3662L44.6838 36.7585C44.368 36.2327 44.151 35.716 44.0328 35.2083C43.918 34.6985 43.9006 34.2145 43.9808 33.7563C44.0589 33.2947 44.2322 32.8739 44.5007 32.4939C44.7724 32.1119 45.1377 31.7831 45.5965 31.5075C46.1791 31.1575 46.7357 30.969 47.2663 30.9419C47.7968 30.9148 48.2863 31.0241 48.7346 31.2697C49.1862 31.5133 49.584 31.8645 49.9279 32.3232L48.6722 33.0775C48.4496 32.7829 48.214 32.5576 47.9654 32.4016C47.7201 32.2436 47.4535 32.1714 47.1654 32.185C46.8754 32.1952 46.5545 32.3059 46.2029 32.5171C45.915 32.6901 45.696 32.8945 45.5461 33.1304C45.3961 33.3663 45.3115 33.6313 45.2922 33.9254C45.273 34.2195 45.318 34.541 45.4274 34.89C45.5381 35.2336 45.7101 35.5996 45.9435 35.9881L46.3146 36.6059C46.5359 36.9742 46.7688 37.29 47.0135 37.5531C47.2595 37.8109 47.5138 38.0067 47.7765 38.1406C48.0425 38.2724 48.3162 38.3335 48.5976 38.324C48.8789 38.3145 49.1669 38.2212 49.4616 38.0442C49.8199 37.829 50.0754 37.5981 50.228 37.3514C50.3839 37.1028 50.4535 36.8355 50.4366 36.5494C50.421 36.258 50.3361 35.9422 50.1818 35.602Z" fill="#161A34"/>
<path d="M57.4694 28.9803L57.8831 30.0705L53.6485 31.6775L53.2348 30.5874L57.4694 28.9803ZM52.3104 27.1278L55.3374 35.1039L53.9624 35.6258L50.9354 27.6496L52.3104 27.1278ZM57.2626 25.2483L60.2897 33.2245L58.9201 33.7443L55.8931 25.7681L57.2626 25.2483Z" fill="#161A34"/>
<circle cx="71.5" cy="25.5" r="1.5" fill="#161A34"/>
<circle cx="133.5" cy="99.5" r="1.5" fill="#161A34"/>
<circle cx="38.5" cy="117.5" r="1.5" fill="#161A34"/>
</svg>
