<svg width="18" height="18" viewBox="0 0 18 18" fill="none" xmlns="http://www.w3.org/2000/svg">
  <path fill-rule="evenodd" clip-rule="evenodd" d="M9.00069 0.466919C6.68315 0.466919 6.3923 0.477052 5.48207 0.518475C4.57362 0.560075 3.95352 0.703899 3.41094 0.914924C2.84969 1.13288 2.37359 1.42444 1.89928 1.89893C1.42461 2.37325 1.13305 2.84934 0.91438 3.41042C0.702822 3.95318 0.55882 4.57345 0.517931 5.48155C0.47722 6.39178 0.466553 6.68281 0.466553 9.00034C0.466553 11.3179 0.476864 11.6078 0.518109 12.5181C0.559887 13.4265 0.703711 14.0466 0.914557 14.5892C1.13269 15.1504 1.42425 15.6265 1.89875 16.1009C2.37288 16.5755 2.84898 16.8678 3.40987 17.0858C3.95281 17.2968 4.57308 17.4406 5.48136 17.4822C6.39159 17.5236 6.68226 17.5338 8.99962 17.5338C11.3173 17.5338 11.6073 17.5236 12.5175 17.4822C13.426 17.4406 14.0468 17.2968 14.5897 17.0858C15.1508 16.8678 15.6262 16.5755 16.1003 16.1009C16.575 15.6265 16.8665 15.1504 17.0852 14.5894C17.295 14.0466 17.439 13.4263 17.4817 12.5182C17.5226 11.608 17.5332 11.3179 17.5332 9.00034C17.5332 6.68281 17.5226 6.39196 17.4817 5.48173C17.439 4.57327 17.295 3.95318 17.0852 3.41059C16.8665 2.84934 16.575 2.37325 16.1003 1.89893C15.6256 1.42426 15.151 1.1327 14.5892 0.914924C14.0452 0.703899 13.4247 0.560075 12.5163 0.518475C11.606 0.477052 11.3163 0.466919 8.99802 0.466919H9.00069ZM8.23513 2.00469C8.46233 2.00433 8.71585 2.00469 9.00065 2.00469C11.2791 2.00469 11.5491 2.01287 12.4489 2.05376C13.2809 2.0918 13.7324 2.23082 14.0332 2.34763C14.4315 2.50229 14.7154 2.68718 15.0139 2.98585C15.3125 3.28452 15.4974 3.56897 15.6525 3.9672C15.7693 4.26765 15.9085 4.71921 15.9463 5.55121C15.9872 6.45078 15.9961 6.72101 15.9961 8.99836C15.9961 11.2757 15.9872 11.5459 15.9463 12.4455C15.9083 13.2775 15.7693 13.7291 15.6525 14.0295C15.4978 14.4278 15.3125 14.7113 15.0139 15.0098C14.7152 15.3085 14.4316 15.4934 14.0332 15.648C13.7328 15.7654 13.2809 15.904 12.4489 15.9421C11.5493 15.983 11.2791 15.9919 9.00065 15.9919C6.72205 15.9919 6.452 15.983 5.55244 15.9421C4.72043 15.9037 4.26887 15.7647 3.96789 15.6479C3.56966 15.4932 3.28521 15.3083 2.98654 15.0096C2.68787 14.711 2.50298 14.4272 2.34796 14.0288C2.23116 13.7284 2.09196 13.2768 2.05409 12.4448C2.0132 11.5452 2.00502 11.275 2.00502 8.99623C2.00502 6.71745 2.0132 6.44865 2.05409 5.54908C2.09213 4.71707 2.23116 4.26551 2.34796 3.96471C2.50263 3.56648 2.68787 3.28204 2.98654 2.98337C3.28521 2.6847 3.56966 2.4998 3.96789 2.34478C4.26869 2.22745 4.72043 2.08878 5.55244 2.05056C6.33964 2.015 6.64471 2.00433 8.23513 2.00256V2.00469ZM13.5557 3.4216C12.9904 3.4216 12.5317 3.87973 12.5317 4.44525C12.5317 5.01059 12.9904 5.46926 13.5557 5.46926C14.1211 5.46926 14.5797 5.01059 14.5797 4.44525C14.5797 3.87991 14.1211 3.4216 13.5557 3.4216ZM9.0007 4.61805C6.58059 4.61805 4.61843 6.5802 4.61843 9.00032C4.61843 11.4204 6.58059 13.3817 9.0007 13.3817C11.4208 13.3817 13.3823 11.4204 13.3823 9.00032C13.3823 6.5802 11.4208 4.61805 9.0007 4.61805ZM9.00067 6.15584C10.5715 6.15584 11.8451 7.42928 11.8451 9.00032C11.8451 10.5712 10.5715 11.8448 9.00067 11.8448C7.42963 11.8448 6.15619 10.5712 6.15619 9.00032C6.15619 7.42928 7.42963 6.15584 9.00067 6.15584Z" fill="#161A34" />
</svg>