<svg width="16" height="14" viewBox="0 0 16 14" fill="none" xmlns="http://www.w3.org/2000/svg">
  <path fill-rule="evenodd" clip-rule="evenodd" d="M7.5208 4.00522L7.55438 4.55886L6.99479 4.49106C4.95791 4.23119 3.17843 3.3499 1.66756 1.86977L0.928908 1.13535L0.73865 1.67769C0.33575 2.88665 0.593158 4.1634 1.43253 5.0221C1.8802 5.49665 1.77948 5.56444 1.00725 5.28197C0.73865 5.19158 0.503625 5.12379 0.481242 5.15769C0.4029 5.23678 0.6715 6.26496 0.884142 6.67171C1.17513 7.23665 1.76828 7.79028 2.4174 8.11795L2.96579 8.37782L2.31668 8.38911C1.68994 8.38911 1.66756 8.40041 1.73471 8.63769C1.95854 9.3721 2.84268 10.1517 3.82755 10.4907L4.52143 10.7279L3.91708 11.0895C3.02175 11.6092 1.96973 11.903 0.917717 11.9256C0.414092 11.9369 0 11.9821 0 12.016C0 12.129 1.36538 12.7617 2.15999 13.0103C4.54382 13.7447 7.37531 13.4283 9.50173 12.1742C11.0126 11.2816 12.5235 9.50769 13.2286 7.79028C13.6091 6.87509 13.9896 5.20288 13.9896 4.40067C13.9896 3.88093 14.0232 3.81314 14.6499 3.19171C15.0192 2.83016 15.3662 2.4347 15.4333 2.32171C15.5452 2.10704 15.534 2.10704 14.9633 2.29912C14.012 2.63808 13.8777 2.59288 14.3477 2.08444C14.6947 1.72288 15.1088 1.06756 15.1088 0.875481C15.1088 0.841585 14.9409 0.898079 14.7506 0.999767C14.5492 1.11275 14.1015 1.28223 13.7658 1.38392L13.1614 1.576L12.613 1.20314C12.3108 0.999767 11.8856 0.773793 11.6617 0.706001C11.0909 0.547819 10.218 0.570417 9.70318 0.751196C8.30422 1.25964 7.42008 2.57029 7.5208 4.00522Z" fill="#161A34" />
</svg>