<svg xmlns="http://www.w3.org/2000/svg" width="98" height="30" fill="none" viewBox="0 0 98 30"><g fill-rule="evenodd" clip-path="url(#a)" clip-rule="evenodd"><path fill="#F90" d="M60.64 23.461c-5.633 4.264-13.798 6.54-20.828 6.54-9.858 0-18.732-3.745-25.446-9.972-.527-.49-.055-1.157.578-.776 7.246 4.33 16.204 6.934 25.458 6.934 6.241 0 13.107-1.326 19.42-4.078.953-.416 1.751.641.819 1.352"/><path fill="#F90" d="M62.983 20.71c-.718-.945-4.76-.447-6.575-.226-.553.07-.637-.425-.139-.78 3.22-2.327 8.503-1.655 9.119-.875.616.784-.16 6.222-3.186 8.818-.464.399-.907.187-.7-.342.679-1.742 2.202-5.647 1.48-6.596"/><path fill="#1D1E25" d="M56.535 3.276V1.014a.55.55 0 0 1 .557-.572h9.861c.317 0 .57.234.57.572v1.937c-.004.325-.27.75-.743 1.422l-5.11 7.492c1.899-.048 3.903.243 5.625 1.24.388.225.494.554.523.879v2.414c0 .329-.354.715-.725.515-3.035-1.633-7.064-1.811-10.42.018-.34.19-.7-.191-.7-.52v-2.293c0-.368.005-.996.363-1.555l5.92-8.72h-5.152a.553.553 0 0 1-.57-.567M20.56 17.39h-3a.574.574 0 0 1-.535-.524V1.053a.57.57 0 0 1 .578-.568H20.4a.57.57 0 0 1 .545.53V3.08H21c.73-1.998 2.101-2.93 3.95-2.93 1.877 0 3.05.932 3.894 2.93C29.57 1.082 31.22.15 32.988.15c1.258 0 2.633.534 3.473 1.73.95 1.33.755 3.263.755 4.957l-.004 9.98a.574.574 0 0 1-.578.572h-2.996a.58.58 0 0 1-.54-.572v-8.38c0-.668.059-2.332-.085-2.965-.223-1.061-.894-1.36-1.763-1.36-.726 0-1.486.498-1.794 1.295-.308.798-.278 2.132-.278 3.03v8.38a.574.574 0 0 1-.579.572h-2.995a.576.576 0 0 1-.54-.572l-.005-8.38c0-1.764.283-4.36-1.848-4.36-2.156 0-2.072 2.53-2.072 4.36v8.38a.574.574 0 0 1-.578.572M76.013.152c4.452 0 6.861 3.926 6.861 8.918 0 4.823-2.662 8.65-6.861 8.65-4.372 0-6.752-3.927-6.752-8.82 0-4.922 2.41-8.748 6.752-8.748m.025 3.228c-2.211 0-2.35 3.094-2.35 5.023 0 1.932-.03 6.058 2.325 6.058 2.325 0 2.435-3.328 2.435-5.356 0-1.335-.055-2.93-.448-4.195-.337-1.1-1.008-1.53-1.962-1.53m12.609 14.01H85.66a.58.58 0 0 1-.54-.572l-.005-15.817a.573.573 0 0 1 .578-.516h2.781a.58.58 0 0 1 .536.442v2.418h.055c.84-2.162 2.017-3.193 4.089-3.193 1.346 0 2.658.498 3.502 1.863.785 1.265.785 3.393.785 4.923v9.954a.58.58 0 0 1-.578.498h-3.009a.575.575 0 0 1-.531-.498v-8.59c0-1.728.194-4.259-1.878-4.259-.73 0-1.401.503-1.734 1.266-.422.966-.477 1.928-.477 2.994v8.515a.584.584 0 0 1-.587.572M48.673 9.837c0 1.2.03 2.201-.561 3.267-.477.867-1.236 1.4-2.076 1.4-1.152 0-1.827-.901-1.827-2.232 0-2.626 2.291-3.102 4.464-3.102zm3.026 7.51a.61.61 0 0 1-.71.073c-.995-.849-1.176-1.243-1.72-2.054-1.646 1.725-2.815 2.24-4.946 2.24-2.528 0-4.49-1.598-4.49-4.8 0-2.501 1.316-4.204 3.198-5.036 1.63-.737 3.904-.867 5.642-1.07v-.4c0-.731.055-1.598-.367-2.23-.363-.569-1.063-.803-1.684-.803-1.143 0-2.16.603-2.41 1.85-.05.278-.248.551-.522.564l-2.908-.32c-.244-.057-.519-.26-.447-.646C41.002 1.092 44.192 0 47.045 0c1.46 0 3.367.399 4.519 1.534 1.46 1.4 1.32 3.268 1.32 5.3v4.801c0 1.443.583 2.076 1.132 2.856.19.277.232.61-.013.819-.612.524-1.7 1.5-2.3 2.045zM9.34 9.837c0 1.2.03 2.202-.56 3.268-.478.866-1.233 1.4-2.077 1.4-1.152 0-1.823-.902-1.823-2.232 0-2.627 2.291-3.103 4.46-3.103zm3.026 7.51a.61.61 0 0 1-.709.073c-.996-.849-1.173-1.243-1.722-2.054-1.645 1.725-2.81 2.24-4.945 2.24-2.524 0-4.49-1.598-4.49-4.8 0-2.5 1.32-4.204 3.199-5.036 1.628-.737 3.903-.867 5.641-1.07v-.4c0-.732.055-1.599-.362-2.232-.368-.567-1.068-.801-1.684-.801-1.144 0-2.165.602-2.414 1.85-.05.277-.249.55-.519.563l-2.912-.32c-.244-.057-.514-.26-.447-.646C1.673 1.092 4.86 0 7.712 0c1.46 0 3.367.399 4.519 1.534 1.46 1.4 1.32 3.268 1.32 5.3v4.802c0 1.443.583 2.075 1.132 2.855.194.277.236.611-.009.82-.612.524-1.7 1.499-2.3 2.044z"/></g><defs><clipPath id="a"><path fill="#fff" d="M.5 0h96.941v30H.5z"/></clipPath></defs></svg>