<svg xmlns="http://www.w3.org/2000/svg" width="115" height="26" fill="none" viewBox="0 0 115 26"><g clip-path="url(#a)"><path fill="#737373" d="m40.619 14.852-.685 1.927h-.057a14 14 0 0 0-.665-1.89l-3.67-9.164H31.95v14.606h2.376v-9.013c0-.566 0-1.209-.019-2.002-.019-.397-.057-.7-.076-.926h.057a9 9 0 0 0 .342 1.247l4.41 10.657h1.674l4.372-10.752c.095-.245.19-.737.285-1.152h.057c-.057 1.077-.095 2.04-.114 2.626v9.259h2.529V5.688h-3.46zm9.619-5.045h2.471v10.468h-2.471zm1.255-4.422c-.419 0-.76.151-1.046.416a1.34 1.34 0 0 0-.437 1.02c0 .397.152.737.437 1.002a1.47 1.47 0 0 0 1.045.397c.419 0 .78-.152 1.046-.397.285-.265.437-.605.437-1.002 0-.396-.152-.737-.437-1.02-.247-.265-.608-.416-1.045-.416m9.98 4.327a7 7 0 0 0-1.388-.15c-1.121 0-2.148.245-3.003.736-.856.491-1.54 1.172-1.977 2.022-.457.87-.685 1.87-.685 3.023 0 1.002.228 1.89.666 2.702.437.794 1.045 1.436 1.863 1.87.779.435 1.692.662 2.718.662 1.179 0 2.186-.246 2.985-.699l.019-.019v-2.267l-.095.075c-.361.265-.78.492-1.198.624-.437.151-.837.227-1.179.227-.988 0-1.768-.284-2.319-.907-.57-.605-.855-1.436-.855-2.476 0-1.077.285-1.927.874-2.55.59-.624 1.369-.945 2.32-.945.798 0 1.615.264 2.357.793l.095.076v-2.4l-.02-.019c-.323-.132-.684-.283-1.178-.378m8.156-.075c-.609 0-1.18.189-1.673.585-.419.34-.704.832-.95 1.418h-.02V9.807h-2.471v10.468h2.471v-5.347c0-.908.19-1.663.608-2.211q.628-.85 1.597-.85c.228 0 .457.056.742.094.266.075.456.151.589.245l.095.076V9.826l-.057-.02c-.171-.113-.513-.17-.931-.17m6.73-.057c-1.73 0-3.118.51-4.088 1.512-.989 1.001-1.464 2.38-1.464 4.119 0 1.625.495 2.948 1.445 3.911.95.945 2.243 1.436 3.86 1.436 1.691 0 3.04-.51 4.01-1.53.989-1.02 1.464-2.381 1.464-4.063 0-1.662-.456-2.985-1.388-3.949-.893-.963-2.205-1.436-3.84-1.436m1.976 8.05c-.456.585-1.178.869-2.072.869-.893 0-1.616-.284-2.129-.907-.513-.586-.76-1.436-.76-2.513 0-1.115.266-1.966.76-2.57q.77-.907 2.11-.907c.875 0 1.56.283 2.053.87.495.585.76 1.435.76 2.55-.037 1.134-.246 2.022-.722 2.608m8.764-3.477c-.78-.322-1.273-.567-1.502-.775q-.285-.283-.285-.794c0-.283.114-.566.4-.755.285-.19.608-.284 1.083-.284.418 0 .855.076 1.274.19.418.113.798.283 1.102.51l.095.075v-2.305l-.057-.02a7 7 0 0 0-1.121-.32 8 8 0 0 0-1.217-.114c-1.179 0-2.148.284-2.908.907-.76.586-1.122 1.38-1.122 2.305 0 .492.076.926.247 1.285.171.36.418.7.76.983.343.264.837.567 1.521.85.57.246 1.008.435 1.274.586s.437.321.57.453c.095.151.152.34.152.586 0 .7-.532 1.04-1.615 1.04-.419 0-.856-.076-1.37-.246a5.3 5.3 0 0 1-1.387-.7l-.095-.075v2.4l.057.019c.361.17.798.283 1.33.415.533.095 1.008.17 1.426.17 1.274 0 2.32-.283 3.061-.907.76-.604 1.16-1.379 1.16-2.38 0-.7-.19-1.323-.609-1.795a7.7 7.7 0 0 0-2.224-1.304m9.353-4.573c-1.73 0-3.117.51-4.087 1.512-.97 1.001-1.464 2.38-1.464 4.119 0 1.625.495 2.948 1.445 3.911.95.945 2.243 1.436 3.86 1.436 1.691 0 3.04-.51 4.01-1.53.989-1.02 1.464-2.381 1.464-4.063 0-1.662-.456-2.985-1.387-3.949-.894-.963-2.206-1.436-3.84-1.436m1.959 8.05c-.457.585-1.18.869-2.073.869-.912 0-1.616-.284-2.129-.907-.513-.586-.76-1.436-.76-2.513 0-1.115.266-1.966.76-2.57q.77-.907 2.11-.907c.856 0 1.56.283 2.053.87.495.585.76 1.435.76 2.55 0 1.134-.246 2.022-.722 2.608m16.482-5.801V9.807h-2.491V6.708l-.076.019-2.357.699-.057.019v2.362h-3.726V8.484c0-.605.152-1.077.418-1.38s.665-.453 1.16-.453c.342 0 .703.076 1.102.246l.095.057V4.818l-.057-.018c-.342-.114-.798-.19-1.387-.19-.742 0-1.388.17-1.978.454a3.3 3.3 0 0 0-1.349 1.342c-.324.567-.495 1.209-.495 1.946v1.455h-1.73v2.003h1.73v8.465h2.491v-8.446h3.726v5.385c0 2.21 1.045 3.325 3.137 3.325.342 0 .703-.056 1.045-.113.361-.076.627-.17.78-.246l.019-.018V18.14l-.095.075c-.153.095-.286.17-.514.227a1.7 1.7 0 0 1-.494.076c-.494 0-.836-.114-1.084-.397-.228-.265-.342-.7-.342-1.342v-4.95z"/><path fill="#F25022" d="M.088.813h11.654v11.583H.088z"/><path fill="#7FBA00" d="M12.958.813h11.654v11.583H12.958z"/><path fill="#00A4EF" d="M.088 13.605h11.654v11.583H.088z"/><path fill="#FFB900" d="M12.958 13.605h11.654v11.583H12.958z"/></g><defs><clipPath id="a"><path fill="#fff" d="M.088.813h114.824v24.375H.088z"/></clipPath></defs></svg>