<svg xmlns="http://www.w3.org/2000/svg" width="93" height="32" fill="none" viewBox="0 0 93 32"><path fill="#1D1E25" fill-rule="evenodd" d="m81.677 14.914-5.87 10.157-5.008.02L81.677 5.973 92.515 25.09h-5.087l-5.75-10.179zM65.87 20.669h5.61l-2.605 4.422h-7.31l.019-5.384V6.09h4.307zM50.486 6.09c5.349.02 9.676 4.263 9.656 9.509-.02 5.226-4.347 9.47-9.697 9.47-5.328-.02-9.656-4.263-9.656-9.51.02-5.226 4.347-9.469 9.697-9.469m-.02 14.559c2.864 0 5.167-2.26 5.167-5.05.021-2.79-2.303-5.07-5.147-5.07-2.845-.02-5.17 2.26-5.17 5.05-.019 2.79 2.305 5.07 5.15 5.07m-17.65-6.56c-.06-.786-.26-1.827-.56-2.828A14.4 14.4 0 0 0 29.11 5.7c-.761-.825-1.622-1.592-2.906-2.496a49 49 0 0 1-2.884-1.552c-.62-.353-1.363-.786-2.343-1.1a17 17 0 0 0-3.547-.45c-1.16-.04-2.324.06-3.445.274-1.183.197-2.165.51-3.467.825C7.573 2.478 5.29 4.404 3.326 6.96c-6.851 9.607-.66 23.066 10.779 24.657 1.883.256 3.766.157 5.549-.255l1.262-.334c.04-.02.1-.04.14-.04l1.443-.55c.08-.04.14-.06.22-.098l.601-.275a16.4 16.4 0 0 0 3.225-2.102c-.9.822-1.88 1.553-2.924 2.18l.06.04c.2-.06.38-.118.58-.157 0 0 0 .314-.04.255-.32.236.181.02.822-.315a10 10 0 0 0 1.823-1.218c.822-.687 1.543-1.434 2.564-2.651 1.042-1.828 2.345-3.42 2.946-5.562.2-.57.38-1.237.501-1.925.119-.687.2-1.395.2-2.122a16 16 0 0 0-.26-2.396m-14.825 16.15c3.506-.55 6.45-2.495 8.855-5.147.662-.964 1.182-1.848 1.823-2.81.801-1.966.742-3.714 1.002-4.951.32-2.241-.44-4.048-1.081-5.974-.982-2.24-2.285-3.91-4.569-5.206-5.77-3.576-13.623-2.575-17.369 2.77-.02 0-.12.137-.321.412.26-1.1.922-1.748 1.583-2.377 1.964-1.611 4.248-2.889 6.852-3.517 2.946-.314 5.87 0 8.494 1.277 3.927 2.24 6.531 5.758 7.192 9.922v3.851c-.821 6.308-6.23 11.102-12.46 11.75m14.405-14.343C32.256 6.664 23.1.435 14.185 1.693c-2.604.648-5.45 1.945-7.473 3.753-.982.647-1.442 1.846-2.424 2.809C.361 14.012 1.043 21.38 5.93 25.86q.942.934 2.004 1.729c-4.086-2.458-5.93-6.172-6.57-10.69 0-1.611.32-3.203.66-4.813C4.309 5.032 11.5-.096 19.334 1.2c1.302.315 2.605.649 3.928.963 1.642.648 3.265 1.611 4.567 2.89 1.302 1.275 2.284 2.887 3.266 4.478.66 1.278.982 2.888 1.302 4.165.06.727.06 1.475 0 2.202z" clip-rule="evenodd"/><path fill="#fff" fill-rule="evenodd" d="M24.262 16.036c0 3.97-3.325 7.192-7.432 7.192-4.106 0-7.433-3.223-7.433-7.192 0-3.968 3.326-7.19 7.433-7.19s7.432 3.222 7.432 7.191z" clip-rule="evenodd"/><path fill="#D7DF23" fill-rule="evenodd" d="M24.303 14.818c-.1-.55-.261-.982-.42-1.591-.642-1.337-1.584-2.378-2.826-3.262-4.648-3.084-11.039-.118-11.72 5.149-.259 2.082.482 4.087 1.804 5.62-.4-.414-.841-.845-1.142-1.337l-.04.04c.04.117.201.196.24.313 0 0-.16 0-.12-.02-.12-.136-.019.08.16.374q.241.442.601.826c.342.373.702.707 1.303 1.16.882.45 1.663 1.04 2.684 1.315.281.08.601.157.923.216.34.06.66.08 1.021.08.34 0 .701-.04 1.142-.12a8 8 0 0 0 1.342-.273 6.95 6.95 0 0 0 2.645-1.495c.38-.352.922-.804 1.342-1.394.34-.668.38-1.002.541-1.297.16-.295.36-.629.501-1.08a9.3 9.3 0 0 0 .2-1.632c-.02-.55-.06-1.08-.18-1.591zm-4.769-3.654c.682.393.782.451.42.196.523.118.843.413 1.163.708.782.884 1.422 1.925 1.743 3.123.18 1.356.04 2.712-.54 3.911-1.042 1.827-2.705 3.045-4.689 3.379-.22 0-.46 0-.681.02.561-.099.922-.453 1.944-.826 1.1-.393 2.343-2.22 2.945-3.281 1.763-2.889-.321-5.56-2.305-7.23M15.77 22.52c-3.045-.314-5.39-2.81-5.71-5.698.28 1.612 1.242 2.849 2.544 3.95.461.294 1.141.707 1.603 1.002.781.294 1.241.61 2.003.747zm8.193-5.246c-.14.61-.28 1.198-.42 1.808-.301.747-.742 1.513-1.343 2.122-.6.61-1.362 1.08-2.123 1.533-.601.314-1.363.47-1.984.627-.36.04-.781-.117-1.142-.136 4.448-.119 7.493-4.264 6.832-8.37-.321-1.199-.962-2.24-1.743-3.282-.32-.452-.943-.727-1.403-1.179-2.785-1.748-6.47-1.394-8.574.905a10 10 0 0 0-.822.962c1.123-1.65 2.926-2.81 5.089-3.144.762-.02 1.543.119 2.304.256 3.366 1.021 5.87 4.283 5.329 7.9z" clip-rule="evenodd"/></svg>