<svg xmlns="http://www.w3.org/2000/svg" width="113" height="28" fill="none" viewBox="0 0 113 28"><g clip-path="url(#a)"><path fill="#041E42" d="M40.222 10.212V11.7h.046c.54-.797 1.435-1.735 3.42-1.735 1.544 0 2.73.78 3.237 1.958h.046c.434-.595.93-1.046 1.488-1.366.66-.378 1.392-.595 2.316-.595 2.091 0 3.942 1.35 3.942 4.752v6.455H51.53v-6.004c0-1.724-.628-2.722-1.932-2.722-.956 0-1.65.6-1.915 1.337a2.8 2.8 0 0 0-.134.888v6.504h-3.187v-6.25c0-1.465-.603-2.482-1.89-2.482-1.03 0-1.675.757-1.94 1.406-.112.276-.148.595-.148.895v6.428h-3.19V10.212zm30.948 0v2.067h.088c.585-1.58 1.974-2.314 3.194-2.314.307 0 .476.023.723.07v2.87c-.293-.04-.564-.08-.945-.08-1.382 0-2.345.75-2.588 1.926-.053.243-.07.506-.07.81v5.61h-3.273v-10.96zm8.448-3.63v3.449h2.764v2.79h-2.764v4.118c0 1.333.363 1.978 1.442 1.978.508 0 .882-.059 1.206-.135l.042 2.314c-.434.151-1.357.316-2.295.316-1.104 0-2.024-.359-2.585-.915-.641-.635-.938-1.675-.938-3.156V6.58zM34.972 21.169h-3.174V6.582h3.174zm-8.463-3.914c0 .201-.017.412-.077.593-.247.76-1.09 1.402-2.14 1.402-.878 0-1.577-.464-1.577-1.448 0-1.505 1.778-1.923 3.798-1.913v1.366zm3.17-2.623c0-2.485-1.135-4.667-4.975-4.667-1.97 0-3.536.517-4.39.978l.624 1.994c.78-.46 2.024-.84 3.202-.84 1.95-.002 2.267 1.031 2.267 1.693v.158c-4.249-.007-6.932 1.365-6.932 4.163 0 1.708 1.365 3.308 3.741 3.308 1.463 0 2.683-.543 3.417-1.416h.07s.487 1.893 3.16 1.169c-.141-.79-.187-1.63-.187-2.64v-3.9zM3.534 6.582a2210 2210 0 0 1 1.259 6.026c.391 1.843.75 3.775 1.022 5.302h.05c.264-1.622.68-3.16 1.125-5.062l1.569-6.266h3.473l1.467 6.427c.384 1.788.69 3.167.934 4.829h.046c.264-1.679.61-3.114.987-4.95l1.41-6.306h3.332L16.08 21.169c-2.63.536-3.64-.451-3.999-2.018-.36-1.57-1.065-4.555-1.065-4.555-.363-1.636-.645-2.788-.842-4.466h-.05c-.282 1.662-.578 2.827-1.015 4.463l-1.732 6.579c-2.686.5-3.617-.24-4.132-2.251C2.801 17.199.029 6.585.029 6.585h3.505zm59.477 10.673c0 .201-.018.412-.078.593-.247.76-1.09 1.402-2.14 1.402-.878 0-1.576-.464-1.576-1.448 0-1.505 1.777-1.923 3.797-1.913v1.366zm3.17-2.623c0-2.485-1.136-4.667-4.976-4.667-1.97 0-3.536.517-4.39.978l.624 1.994c.78-.46 2.024-.84 3.202-.84 1.946-.002 2.267 1.031 2.267 1.693v.158c-4.245-.007-6.928 1.365-6.928 4.163 0 1.708 1.368 3.308 3.74 3.308 1.46 0 2.684-.543 3.414-1.416h.074s.486 1.893 3.16 1.169c-.142-.79-.188-1.63-.188-2.64z"/><path fill="#FFC124" d="M95.246 16.145c.313.532.292 1.127-.042 1.398L89.433 21.5c-.601.34-1.5-.072-2.01-.935-.514-.866-.422-1.831.179-2.172l6.39-2.907c.4-.151.941.127 1.254.66m7.595 0c.317-.533.854-.808 1.255-.664l6.393 2.908c.601.34.689 1.306.179 2.172-.513.863-1.416 1.271-2.013.935l-5.772-3.956c-.33-.268-.355-.866-.042-1.395m-3.8 2.144c.63 0 1.147.316 1.217.732l.622 6.867c0 .68-.812 1.237-1.835 1.237-1.019 0-1.834-.557-1.834-1.237l.618-6.867c.07-.416.587-.732 1.213-.732m3.842-7.829 5.772-3.959c.597-.34 1.5.069 2.013.935.51.866.422 1.832-.179 2.172l-6.393 2.91c-.401.145-.942-.13-1.255-.662-.313-.533-.288-1.128.042-1.396m-8.892 2.059-6.39-2.911c-.597-.34-.688-1.306-.178-2.172s1.412-1.275 2.01-.935l5.77 3.96c.335.264.356.862.043 1.395-.313.532-.854.807-1.255.663m3.838-3.54-.618-6.867c0-.68.812-1.237 1.834-1.237s1.835.557 1.835 1.237l-.622 6.867c-.07.412-.587.732-1.216.732-.626 0-1.142-.32-1.213-.732m14.4 12.493V21.3h.158c.053 0 .088.034.088.086a.084.084 0 0 1-.088.086zm-.13.312c0 .018.014.035.035.035h.067c.017 0 .035-.017.035-.035v-.195h.109l.088.206c.007.013.017.024.031.024h.081a.034.034 0 0 0 .032-.048q-.048-.094-.095-.193a.19.19 0 0 0 .134-.192c0-.13-.109-.206-.218-.206h-.264c-.018 0-.035.017-.035.034zm-.285-.285c0-.278.232-.505.517-.505s.516.223.516.505a.51.51 0 0 1-.516.505.51.51 0 0 1-.517-.505m-.123 0c0 .344.285.626.64.626.351 0 .64-.282.64-.626a.636.636 0 0 0-.64-.625.633.633 0 0 0-.64.625"/></g><defs><clipPath id="a"><path fill="#fff" d="M.03.875h112.94v26.25H.03z"/></clipPath></defs></svg>